<svg xmlns="http://www.w3.org/2000/svg" width="21.944" height="18.166" viewBox="0 0 21.944 18.166">
  <g id="Group_10801" data-name="Group 10801" transform="translate(-1069.231 -647.917)">
    <path id="Path_202" data-name="Path 202" d="M20.6,5.652C18.549,3.075,15.184,0,10.8,0S3.044,3.075,1,5.652a4.531,4.531,0,0,0,0,5.669c2.048,2.578,5.413,5.652,9.8,5.652s7.752-3.073,9.8-5.65a4.531,4.531,0,0,0,0-5.671m-1.126,4.776c-1.852,2.327-4.86,5.106-8.675,5.106s-6.823-2.779-8.675-5.106a3.143,3.143,0,0,1,0-3.879C3.973,4.218,6.984,1.438,10.8,1.438s6.823,2.777,8.675,5.106a3.143,3.143,0,0,1,0,3.884ZM10.8,4.814a3.677,3.677,0,1,0,2.6,1.077,3.672,3.672,0,0,0-2.6-1.077Zm0,5.906a2.237,2.237,0,1,1,1.579-.655,2.234,2.234,0,0,1-1.579.655Z" transform="translate(1069.406 648.5)" fill="#6b6d84"/>
    <path id="Path_4444_-_Outline" data-name="Path 4444 - Outline" d="M.472,17.583l-.944-1.166,21-17L21.472.583Z" transform="translate(1069.703 648.5)" fill="#6b6d84"/>
  </g>
</svg>
